# xmcd
#
# Track frame offsets:
#	150
#	11055
#	21933
#	33257
#	44215
#	56744
#	70431
#	87322
#	97661
#	114382
#	128240
#	141429
#
# Disc length: 2013 seconds
#
# Revision: 1
# Processed by: cddbd v1.4PL0 Copyright (c) Steve Scherf et al.
# Submitted via: dBpowerAMP V4.0
#
DISCID=a907db0c
DTITLE=Donau-Franken - Schöne Stunden
DYEAR=2003
DGENRE=Pop
TTITLE0=Schönes Heckenland
TTITLE1=Mama
TTITLE2=Egerländer Wirtshauspolka
TTITLE3=Dunkelgrüne Sterne
TTITLE4=Schöne Serenade
TTITLE5=Wenn die Böhmischen Berge
TTITLE6=Pro-Betty
TTITLE7=Für uns zwei
TTITLE8=Schöne Stunden
TTITLE9=Mitternachtsträume
TTITLE10=Für unsere Freunde
TTITLE11=Aud Wiederseh´n bei Blasmusik
EXTD="Schöne Stunden"\n
EXTT0=
EXTT1=
EXTT2=
EXTT3=
EXTT4=
EXTT5=
EXTT6=
EXTT7=
EXTT8=
EXTT9=
EXTT10=
EXTT11=
PLAYORDER=
